<svg xmlns="http://www.w3.org/2000/svg" data-name="Layer 1" viewBox="0 0 100 125" x="0px" y="0px"><title>78</title><g data-name="Group"><path data-name="Compound Path" d="M45.4,59.5A8.4,8.4,0,1,0,37,51.1,8.4,8.4,0,0,0,45.4,59.5Zm0-12.8A4.4,4.4,0,1,1,41,51.1,4.4,4.4,0,0,1,45.4,46.7Z"/><path data-name="Compound Path" d="M96.6,10.4H25.7V21.6H14.6V32.7H3.4V89.6H74.3V78.4H85.4V67.3H96.6ZM70.3,36.7V57.6L45.7,72,26.6,55.3,7.4,69.3V36.7ZM7.4,85.6V74.2L26.3,60.4,45.2,76.9,70.3,62.2V85.6Zm74-11.1H74.3V32.7H18.6V25.6H81.4ZM92.6,63.3H85.4V21.6H29.7V14.4H92.6Z"/></g><text x="0" y="115" fill="#000000" font-size="5px" font-weight="bold" font-family="'Helvetica Neue', Helvetica, Arial-Unicode, Arial, Sans-serif">Created by Shastry</text><text x="0" y="120" fill="#000000" font-size="5px" font-weight="bold" font-family="'Helvetica Neue', Helvetica, Arial-Unicode, Arial, Sans-serif">from the Noun Project</text></svg>