<svg xmlns="http://www.w3.org/2000/svg" xmlns:xlink="http://www.w3.org/1999/xlink" version="1.1" x="0px" y="0px" viewBox="0 0 1024 1280" style="enable-background:new 0 0 1024 1024;" xml:space="preserve"><g><polygon points="827,485.7 842,478.7 842,683.5 511,854.9 180,683.5 180,477.7 195,484.8 210,491.8 512,633.8    812,492.8  "/><polygon points="957.8,380 959,380 959,579 919,579 919,398.3 842,434.5 827,441.5 777.7,464.7 546.5,573.4    512,589.6 462.8,566.5 231.6,457.8 195,440.6 180,433.5 64.8,379.4 512,169.1 959.2,379.4  "/></g><text x="0" y="1039" fill="#000000" font-size="5px" font-weight="bold" font-family="'Helvetica Neue', Helvetica, Arial-Unicode, Arial, Sans-serif">Created by IconPai</text><text x="0" y="1044" fill="#000000" font-size="5px" font-weight="bold" font-family="'Helvetica Neue', Helvetica, Arial-Unicode, Arial, Sans-serif">from the Noun Project</text></svg>