<svg xmlns="http://www.w3.org/2000/svg" data-name="Layer 1" viewBox="0 0 64 80" x="0px" y="0px"><title>work_8</title><path d="M62,16H42V8a2,2,0,0,0-2-2H24a2,2,0,0,0-2,2v8H2a2,2,0,0,0-2,2v9a9.18,9.18,0,0,0,9.33,9H26V33a4,4,0,0,1,4-4h4a4,4,0,0,1,4,4v3H54.67A9.18,9.18,0,0,0,64,27V18A2,2,0,0,0,62,16ZM38,16H26V10H38ZM64,33.23V56a2,2,0,0,1-2,2H2a2,2,0,0,1-2-2V33.23A11.42,11.42,0,0,0,9.33,38H26v3a4,4,0,0,0,4,4h4a4,4,0,0,0,4-4V38H54.67A11.42,11.42,0,0,0,64,33.23ZM30,43a2,2,0,0,1-2-2V33a2,2,0,0,1,2-2h4a2,2,0,0,1,2,2v8a2,2,0,0,1-2,2Z"/><text x="0" y="79" fill="#000000" font-size="5px" font-weight="bold" font-family="'Helvetica Neue', Helvetica, Arial-Unicode, Arial, Sans-serif">Created by Mello</text><text x="0" y="84" fill="#000000" font-size="5px" font-weight="bold" font-family="'Helvetica Neue', Helvetica, Arial-Unicode, Arial, Sans-serif">from the Noun Project</text></svg>